<svg width="67.733mm" height="12.7mm" version="1.1" viewBox="0 0 67.733 12.7" xmlns="http://www.w3.org/2000/svg">
 <path d="m6.35 0c-3.5133 0-6.3496 2.8363-6.3496 6.3496s2.8363 6.3496 6.3496 6.3496h55.033c3.5133 0 6.3496-2.8363 6.3496-6.3496s-2.8363-6.3496-6.3496-6.3496z" color="#000000" fill="#121212" style="-inkscape-stroke:none"/>
 <g transform="translate(-43.832 -102.45)">
  <path d="m50.182 102.45c-3.5133 0-6.3496 2.8363-6.3496 6.3496s2.8363 6.3496 6.3496 6.3496h55.033c3.5133 0 6.3496-2.8363 6.3496-6.3496s-2.8363-6.3496-6.3496-6.3496zm0 0.52929h55.033c3.2293 0 5.8223 2.591 5.8223 5.8203s-2.593 5.8203-5.8223 5.8203h-55.033c-3.2293 0-5.8203-2.591-5.8203-5.8203s2.591-5.8203 5.8203-5.8203z" color="#000000" fill="#fb521f" style="-inkscape-stroke:none"/>
  <g fill="#faf9f5">
   <g stroke-width=".26458">
    <path d="m68.239 111.44q-0.78964 0-1.3445-0.34858-0.54777-0.3557-0.83232-0.94615-0.28456-0.59045-0.28456-1.3161 0-0.53354 0.15651-1.003 0.16362-0.47663 0.47663-0.83233 0.31301-0.35569 0.7683-0.55488 0.4624-0.2063 1.06-0.2063 1.0031 0 1.5651 0.53354 0.56911 0.52643 0.68293 1.4228h-0.83232q-0.03557-0.24188-0.12805-0.46241t-0.2561-0.39126q-0.16362-0.17785-0.41972-0.27744-0.24899-0.0996-0.61179-0.0996-0.55488 0-0.9248 0.26322-0.36992 0.26321-0.54777 0.69004-0.17785 0.42684-0.17785 0.91769 0 0.49798 0.17785 0.92481t0.54777 0.69716q0.36992 0.26321 0.9248 0.26321 0.4126 0 0.69716-0.12805 0.29167-0.12805 0.46952-0.34146 0.17785-0.22053 0.24899-0.50509 0.07114-0.28455 0.04268-0.60468l0.32724 0.22053h-1.7856v-0.68293h2.2693q0.05691 0.93192-0.2063 1.5508-0.26321 0.61179-0.79675 0.91769-0.52643 0.29878-1.2663 0.29878z" dominant-baseline="middle"/>
    <path d="m74.193 111.33-2.5468-4.9797h0.85367l2.5539 4.9797zm-2.8029-4.9797h0.74696v4.9797h-0.74696zm3.1728 0h0.74696v4.9797h-0.74696z" dominant-baseline="middle"/>
    <path d="m80.169 109.2q0 0.70428-0.19919 1.2094-0.19207 0.49797-0.61891 0.7683t-1.1311 0.27033q-0.71139 0-1.1453-0.27033-0.42683-0.27033-0.61891-0.7683-0.19207-0.50508-0.19207-1.2094h0.78253q0 0.48375 0.09959 0.82521 0.10671 0.34147 0.36281 0.51932 0.2561 0.17784 0.71139 0.17784 0.44817 0 0.70427-0.17784 0.2561-0.17785 0.35569-0.51932 0.10671-0.34146 0.10671-0.82521zm-3.9055-2.8456h0.78253v2.8456h-0.78253zm3.123 0h0.78253v2.8456h-0.78253z" dominant-baseline="middle"/>
    <path d="m82.09 106.35h0.77541l-1.4228 4.9797h-0.77541z" dominant-baseline="middle"/>
    <path d="m83.633 106.35h0.78253v4.9797h-0.78253zm0.61179 4.2968h2.3832v0.68294h-2.3832z" dominant-baseline="middle"/>
    <path d="m87.304 107.35h0.7683v3.9838h-0.7683zm-0.04268-1.3516h0.86078v0.875h-0.86078z" dominant-baseline="middle"/>
    <path d="m89.04 107.35h0.7683v0.65448q0.08537-0.19919 0.24187-0.36992 0.16362-0.17785 0.42683-0.28456 0.26321-0.11382 0.64025-0.11382 0.38415 0 0.69005 0.15651 0.3059 0.1565 0.47663 0.51931 0.17785 0.35569 0.17785 0.96749v2.4543h-0.7683v-2.3618q0-0.32724-0.06403-0.562-0.06403-0.24187-0.23476-0.36992-0.16362-0.13516-0.46952-0.13516-0.28456 0-0.54066 0.16362t-0.41972 0.48374q-0.15651 0.32012-0.15651 0.79675v1.9848h-0.7683z" dominant-baseline="middle"/>
    <path d="m96.758 111.33h-0.7683v-3.9838h0.7683zm-0.7683-1.999 0.11382 0.78252q0 0.18496-0.06403 0.41261-0.06403 0.22764-0.22764 0.44106-0.15651 0.2063-0.43395 0.34147-0.27744 0.13516-0.70427 0.13516-0.38415 0-0.69005-0.15651-0.29878-0.1565-0.47663-0.51931-0.17073-0.36281-0.17073-0.96749v-2.4543h0.76118v2.3618q0 0.32013 0.06403 0.562 0.07114 0.23476 0.23476 0.36992 0.17073 0.13516 0.47663 0.13516 0.28456 0 0.54066-0.16362 0.2561-0.17073 0.4126-0.49085 0.16362-0.32013 0.16362-0.78964z" dominant-baseline="middle"/>
    <path d="m97.498 107.35h0.88924l2.5397 3.9838h-0.88924zm3.4075 0-2.5397 3.9838h-0.88924l2.5397-3.9838z" dominant-baseline="middle"/>
   </g>
   <path d="m59.437 104.7c-0.06244 0-0.12688 3e-3 -0.19334 8e-3 -1.7022 0.11732-1.2507 1.6941-1.2769 2.2196-0.03062 0.38486-0.12083 0.68831-0.42294 1.0644-0.35648 0.37041-0.85675 0.96918-1.094 1.5933-0.11199 0.29324-0.16515 0.59351-0.1156 0.87721a0.17079 0.14943 0 0 0-0.0443 0.0476c-0.10474 0.0945-0.18126 0.21146-0.26706 0.29569-0.08017 0.0702-0.19536 0.0942-0.32103 0.14099-0.12607 0.0479-0.26504 0.0948-0.34802 0.23965-0.03624 0.0667-0.05478 0.13891-0.05316 0.21218 0 0.0702 0.01096 0.14099 0.02216 0.1889 0.02336 0.14066 0.04673 0.25657 0.01608 0.34186-0.1003 0.23966-0.11279 0.40352-0.04269 0.52301 0.07008 0.11764 0.2155 0.16564 0.37863 0.21181 0.32627 0.0705 0.76934 0.0476 1.1174 0.21145 0.37299 0.16425 0.75162 0.23614 1.0537 0.16565 0.21188-0.0409 0.39072-0.16352 0.48658-0.3334 0.23644-1e-3 0.49544-0.0948 0.91032-0.11764 0.28156-0.0204 0.63401 0.0941 1.038 0.0705 0.01004 0.0472 0.02537 0.0696 0.04592 0.11732l0.0012 1e-3c0.1575 0.27419 0.44832 0.39895 0.75887 0.37745 0.31056-0.0211 0.64125-0.1889 0.90911-0.46028 0.25417-0.26961 0.67791-0.38203 0.95786-0.52971 0.14018-0.0702 0.25336-0.16528 0.26142-0.30062 0.0093-0.14098-0.08057-0.28581-0.2876-0.48494v-0.0343l-0.0012-1e-3c-0.06847-0.0705-0.1007-0.18856-0.13614-0.32636-0.03423-0.1413-0.07332-0.277-0.19818-0.36865h-0.0012c-0.02377-0.0191-0.04954-0.0237-0.07573-0.0476a0.1438 0.12582 0 0 0-0.07653-0.0225c0.17361-0.4504 0.10634-0.8987-0.06968-1.3019-0.21469-0.49693-0.5901-0.92972-0.87609-1.2275-0.32063-0.3542-0.63481-0.68971-0.62836-1.187 0.01047-0.75844 0.09505-2.1615-1.4275-2.1636zm0.21308 1.2h0.0053c0.08579 0 0.1595 0.0219 0.23524 0.0699 0.07653 0.0476 0.13292 0.11701 0.17642 0.18785 0.04229 0.0913 0.06364 0.16176 0.06687 0.25516a0.72786 0.63685 0 0 1-0.06042 0.24881 0.38387 0.33587 0 0 1-0.08579 0.11813c-0.04189-0.016-0.07975-0.0225-0.1144-0.0468a0.52847 0.46239 0 0 0-0.08863-0.0232c0.02015-0.0211 0.0588-0.0468 0.07372-0.0699 0.02136-0.0451 0.03303-0.093 0.03544-0.14161a0.48739 0.42644 0 0 0-0.02457-0.14099c-0.01809-0.0472-0.04068-0.0705-0.07372-0.11733-0.03383-0.0232-0.06727-0.0465-0.10755-0.0465-0.03745 0-0.0709 0.0112-0.10554 0.0465a0.32224 0.28195 0 0 0-0.08258 0.11765 0.4753 0.41587 0 0 0-0.03624 0.14098c8.23e-4 0.0313 0.0033 0.0631 8e-3 0.0942-0.07774-0.0237-0.17642-0.0476-0.2445-0.0711a0.65858 0.57623 0 0 1-0.0073-0.0705 0.71376 0.62451 0 0 1 0.06042-0.27066c0.03303-0.0776 0.09344-0.14306 0.1732-0.18785a0.39676 0.34715 0 0 1 0.23926-0.0705zm-1.1931 0.0208h0.01443c0.0572 0 0.10875 0.017 0.16071 0.0476 0.0588 0.0454 0.10634 0.10146 0.13857 0.16388 0.03624 0.0702 0.05639 0.14097 0.06162 0.23508 0.0027 0.0472 0.0023 0.0705-8.22e-4 0.0939v0.0281c-0.01206 3e-3 -0.02256 6e-3 -0.03343 8e-3 -0.06122 0.0193-0.11036 0.0476-0.1583 0.0705 0.0048-0.0318 0.0053-0.0634 0.0012-0.0942-0.0048-0.0468-0.01608-0.0705-0.03303-0.11732a0.24692 0.21604 0 0 0-0.06687-0.0942 0.099894 0.087403 0 0 0-0.07372-0.0225c-0.02859 2e-3 -0.05236 0.0143-0.07492 0.0466a0.22234 0.19454 0 0 0-0.04833 0.0951 0.38024 0.3327 0 0 0-0.0093 0.11636c0.0048 0.0476 0.01498 0.0705 0.03222 0.11765 0.01852 0.0473 0.03948 0.0705 0.06687 0.0945 4e-3 3e-3 8e-3 6e-3 0.0137 8e-3 -0.02819 0.0201-0.04713 0.0246-0.07089 0.0479a0.12245 0.10714 0 0 1-0.05277 0.024 1.0553 0.92338 0 0 1-0.11076-0.14162 0.71376 0.62451 0 0 1-0.06243-0.23508 0.70852 0.61993 0 0 1 0.03222-0.23542 0.576 0.50398 0 0 1 0.114-0.18855c0.05155-0.0468 0.10474-0.0705 0.16836-0.0705zm0.55183 0.60125c0.13373 0 0.29525 0.0229 0.4898 0.14067 0.11802 0.0705 0.21066 0.0948 0.42374 0.16493 0.10271 0.0479 0.16314 0.0939 0.19254 0.14067a0.23 0.20124 0 0 1 0.0063 0.16563c-0.04954 0.10933-0.20784 0.22663-0.42817 0.29675-0.10795 0.0476-0.2018 0.11733-0.31217 0.16389-0.11118 0.0476-0.23685 0.10294-0.40763 0.0942a0.45879 0.40142 0 0 1-0.18046-0.0237 1.4364 1.2568 0 0 1-0.12971-0.0699c-0.07854-0.0476-0.14622-0.11701-0.24651-0.16388-0.16111-0.0866-0.24812-0.18044-0.27632-0.25023-0.02819-0.0945-2e-3 -0.16565 0.07774-0.21146 0.09023-0.0476 0.15305-0.0956 0.19455-0.11844 0.04189-0.026 0.0576-0.0359 0.0709-0.0461 0.06807-0.0711 0.17562-0.16564 0.33795-0.21181 0.05599-0.0127 0.11842-0.0229 0.1877-0.0229z" stroke-width=".22049"/>
  </g>
 </g>
</svg>
